<?xml version="1.0" encoding="utf-8"?>
<!-- Generator: Adobe Illustrator 19.0.0, SVG Export Plug-In . SVG Version: 6.00 Build 0)  -->
<svg version="1.1" id="Layer_1" xmlns="http://www.w3.org/2000/svg" xmlns:xlink="http://www.w3.org/1999/xlink" x="0px" y="0px"
	 viewBox="0 0 48 48" enable-background="new 0 0 48 48" xml:space="preserve">
<g id="XMLID_2_">
	<circle id="XMLID_21_" fill="#F5F5F5" cx="24" cy="24" r="24"/>
</g>
<path id="clear" fill="#37474F" d="M33.9,16.1l-2-2L24,22l-7.9-7.9l-2,2L22,24l-7.9,7.9l2,2L24,26l7.9,7.9l2-2L26,24L33.9,16.1z"/>
<path id="night" fill="#37474F" d="M24,14.1c-1.8,0-3.5,0.5-5,1.3c3,1.7,5,4.9,5,8.6s-2,6.9-5,8.6c1.5,0.8,3.1,1.3,5,1.3
	c5.5,0,9.9-4.4,9.9-9.9S29.5,14.1,24,14.1z"/>
<path id="evening" fill="#37474F" d="M21,32.9c0,0.5,0.4,1,1,1h4c0.5,0,1-0.4,1-1v-1H21V32.9z M24,14.1c-3.8,0-6.9,3.1-6.9,6.9
	c0,2.4,1.2,4.4,3,5.7V29c0,0.5,0.4,1,1,1H27c0.5,0,1-0.4,1-1v-2.2c1.8-1.3,3-3.3,3-5.7C30.9,17.2,27.8,14.1,24,14.1z M26.8,25.1
	L26,25.7V28h-4v-2.3l-0.8-0.6C19.8,24.2,19,22.6,19,21c0-2.7,2.2-5,5-5s5,2.2,5,5C29,22.6,28.2,24.2,26.8,25.1z"/>
<path id="bright" fill="#37474F" d="M31,21.1V17h-4.1L24,14.1L21.1,17H17v4.1L14.1,24l2.9,2.9V31h4.1l2.9,2.9l2.9-2.9H31v-4.1
	l2.9-2.9L31,21.1z M24,29.3c-2.9,0-5.3-2.4-5.3-5.3s2.4-5.3,5.3-5.3s5.3,2.4,5.3,5.3S26.9,29.3,24,29.3z M24,20.5
	c-1.9,0-3.5,1.6-3.5,3.5s1.6,3.5,3.5,3.5s3.5-1.6,3.5-3.5S25.9,20.5,24,20.5z"/>
<path id="dim" fill="#37474F" d="M31,26.9l2.9-2.9L31,21.1V17h-4.1L24,14.1L21.1,17H17v4.1L14.1,24l2.9,2.9V31h4.1l2.9,2.9l2.9-2.9
	H31C31,31,31,26.9,31,26.9z M24,29.3c-2.9,0-5.3-2.4-5.3-5.3s2.4-5.3,5.3-5.3s5.3,2.4,5.3,5.3S26.9,29.3,24,29.3z"/>
</svg>
