<?xml version="1.0" encoding="utf-8"?>
<!-- Generator: Adobe Illustrator 19.0.0, SVG Export Plug-In . SVG Version: 6.00 Build 0)  -->
<svg version="1.1" id="Layer_1" xmlns="http://www.w3.org/2000/svg" xmlns:xlink="http://www.w3.org/1999/xlink" x="0px" y="0px"
	 viewBox="0 0 48 48" enable-background="new 0 0 48 48" xml:space="preserve">
<g id="XMLID_2_">
	<circle id="XMLID_21_" fill="#F5F5F5" cx="24" cy="24" r="24"/>
</g>
<path id="bright" fill="#37474F" d="M31,21.1V17h-4.1L24,14.1L21.1,17H17v4.1L14.1,24l2.9,2.9V31h4.1l2.9,2.9l2.9-2.9H31v-4.1
	l2.9-2.9L31,21.1z M24,29.3c-2.9,0-5.3-2.4-5.3-5.3s2.4-5.3,5.3-5.3s5.3,2.4,5.3,5.3S26.9,29.3,24,29.3z M24,20.5
	c-1.9,0-3.5,1.6-3.5,3.5s1.6,3.5,3.5,3.5s3.5-1.6,3.5-3.5S25.9,20.5,24,20.5z"/>
</svg>
