<?xml version="1.0" encoding="utf-8"?>
<!-- Generator: Adobe Illustrator 19.0.0, SVG Export Plug-In . SVG Version: 6.00 Build 0)  -->
<svg version="1.1" id="Layer_1" xmlns="http://www.w3.org/2000/svg" xmlns:xlink="http://www.w3.org/1999/xlink" x="0px" y="0px"
	 viewBox="-273 396.9 48 48" style="enable-background:new -273 396.9 48 48;" xml:space="preserve">
<style type="text/css">
	.st0{fill:#F5F5F5;}
	.st1{fill:#37474F;}
</style>
<rect x="-273" y="396.9" class="st0" width="48" height="48"/>
<path id="evening" class="st1" d="M-252,429.8c0,0.5,0.4,1,1,1h4c0.5,0,1-0.4,1-1v-1h-6V429.8z M-249,411c-3.8,0-6.9,3.1-6.9,6.9
	c0,2.4,1.2,4.4,3,5.7v2.3c0,0.5,0.4,1,1,1h5.9c0.5,0,1-0.4,1-1v-2.2c1.8-1.3,3-3.3,3-5.7C-242.1,414.1-245.2,411-249,411z
	 M-246.2,422l-0.8,0.6v2.3h-4v-2.3l-0.8-0.6c-1.4-0.9-2.2-2.5-2.2-4.1c0-2.7,2.2-5,5-5s5,2.2,5,5C-244,419.5-244.8,421.1-246.2,422z
	"/>
</svg>
